<svg width="32" height="32" viewBox="0 0 32 32" fill="none" xmlns="http://www.w3.org/2000/svg">
<rect width="32" height="32" rx="16" fill="#EBFBFE"/>
<path fill-rule="evenodd" clip-rule="evenodd" d="M11.4998 14C11.4998 11.5147 13.5146 9.5 15.9998 9.5C18.4851 9.5 20.4998 11.5147 20.4998 14C20.4998 16.4853 18.4851 18.5 15.9998 18.5C13.5146 18.5 11.4998 16.4853 11.4998 14Z" fill="#0B87AC"/>
<path fill-rule="evenodd" clip-rule="evenodd" d="M7.75109 28.1053C7.82843 23.6156 11.4918 20 15.9998 20C20.508 20 24.1714 23.6157 24.2486 28.1056C24.2537 28.4034 24.0822 28.676 23.8115 28.8002C21.4326 29.8918 18.7864 30.5 16.0002 30.5C13.2137 30.5 10.5673 29.8917 8.18816 28.7999C7.91749 28.6757 7.74596 28.4031 7.75109 28.1053Z" fill="#0B87AC"/>
</svg>
