<svg width="23" height="20" viewBox="0 0 23 20" fill="none" xmlns="http://www.w3.org/2000/svg">
<path fill-rule="evenodd" clip-rule="evenodd" d="M21.868 10.2273C21.868 9.51819 21.797 8.83637 21.6651 8.18182H11.1571V12.05H17.1617C16.903 13.3 16.117 14.3591 14.9353 15.0682V17.5773H18.5411C20.6508 15.8364 21.868 13.2727 21.868 10.2273Z" fill="#4285F4"/>
<path fill-rule="evenodd" clip-rule="evenodd" d="M11.1572 20C14.1696 20 16.6952 19.1045 18.5412 17.5772L14.9354 15.0681C13.9363 15.6681 12.6583 16.0227 11.1572 16.0227C8.25123 16.0227 5.79159 14.2636 4.91423 11.9H1.18674V14.4909C3.02259 17.7591 6.79573 20 11.1572 20Z" fill="#34A853"/>
<path fill-rule="evenodd" clip-rule="evenodd" d="M4.91421 11.8999C4.69107 11.2999 4.56428 10.659 4.56428 9.99994C4.56428 9.34085 4.69107 8.69994 4.91421 8.09994V5.50903H1.18671C0.431071 6.85903 0 8.38631 0 9.99994C0 11.6136 0.431071 13.1409 1.18671 14.4909L4.91421 11.8999Z" fill="#FBBC05"/>
<path fill-rule="evenodd" clip-rule="evenodd" d="M11.1572 3.97727C12.7952 3.97727 14.2659 4.48182 15.4222 5.47273L18.6223 2.60455C16.6901 0.990909 14.1645 0 11.1572 0C6.79573 0 3.02259 2.24091 1.18674 5.50909L4.91423 8.1C5.79159 5.73636 8.25123 3.97727 11.1572 3.97727Z" fill="#EA4335"/>
</svg>
